<svg width="65" height="28" viewBox="0 0 65 28" fill="none" xmlns="http://www.w3.org/2000/svg">
<path d="M29.3125 9V0.323999H31.6765C32.5325 0.323999 33.2605 0.455999 33.8605 0.719999C34.4685 0.984 34.9565 1.332 35.3245 1.764C35.6925 2.196 35.9605 2.676 36.1285 3.204C36.3045 3.724 36.3925 4.244 36.3925 4.764C36.3925 5.42 36.2765 6.008 36.0445 6.528C35.8205 7.048 35.5085 7.492 35.1085 7.86C34.7085 8.228 34.2485 8.512 33.7285 8.712C33.2165 8.904 32.6725 9 32.0965 9H29.3125ZM30.4765 7.884H31.8685C32.3485 7.884 32.7885 7.812 33.1885 7.668C33.5965 7.524 33.9485 7.316 34.2445 7.044C34.5485 6.772 34.7845 6.44 34.9525 6.048C35.1205 5.648 35.2045 5.196 35.2045 4.692C35.2045 4.156 35.1165 3.688 34.9405 3.288C34.7645 2.88 34.5245 2.54 34.2205 2.268C33.9165 1.996 33.5725 1.792 33.1885 1.656C32.8045 1.512 32.4005 1.44 31.9765 1.44H30.4765V7.884ZM37.6396 6.468C37.6396 5.972 37.7556 5.524 37.9876 5.124C38.2276 4.724 38.5556 4.408 38.9716 4.176C39.3876 3.944 39.8596 3.828 40.3876 3.828C40.9316 3.828 41.4076 3.944 41.8156 4.176C42.2236 4.408 42.5396 4.724 42.7636 5.124C42.9876 5.524 43.0996 5.972 43.0996 6.468C43.0996 6.964 42.9876 7.416 42.7636 7.824C42.5396 8.224 42.2196 8.54 41.8036 8.772C41.3956 9.004 40.9196 9.12 40.3756 9.12C39.8476 9.12 39.3756 9.012 38.9596 8.796C38.5516 8.572 38.2276 8.264 37.9876 7.872C37.7556 7.472 37.6396 7.004 37.6396 6.468ZM38.7556 6.48C38.7556 6.8 38.8276 7.092 38.9716 7.356C39.1156 7.612 39.3076 7.816 39.5476 7.968C39.7956 8.12 40.0676 8.196 40.3636 8.196C40.6756 8.196 40.9516 8.12 41.1916 7.968C41.4396 7.816 41.6316 7.612 41.7676 7.356C41.9036 7.092 41.9716 6.8 41.9716 6.48C41.9716 6.16 41.9036 5.872 41.7676 5.616C41.6316 5.352 41.4396 5.144 41.1916 4.992C40.9516 4.832 40.6756 4.752 40.3636 4.752C40.0596 4.752 39.7836 4.832 39.5356 4.992C39.2956 5.152 39.1036 5.364 38.9596 5.628C38.8236 5.884 38.7556 6.168 38.7556 6.48ZM45.6067 4.032L45.7027 5.244L45.6547 5.052C45.8147 4.684 46.0747 4.392 46.4347 4.176C46.7947 3.952 47.2107 3.84 47.6827 3.84C48.1547 3.84 48.5387 3.98 48.8347 4.26C49.1387 4.532 49.2947 4.888 49.3027 5.328V9H48.1747V5.724C48.1667 5.452 48.0867 5.232 47.9347 5.064C47.7907 4.888 47.5627 4.8 47.2507 4.8C46.9627 4.8 46.7027 4.88 46.4707 5.04C46.2387 5.2 46.0547 5.42 45.9187 5.7C45.7907 5.98 45.7267 6.304 45.7267 6.672V9H44.6107V4.032H45.6067ZM52.2395 4.032L52.3355 5.244L52.2875 5.052C52.4475 4.684 52.7075 4.392 53.0675 4.176C53.4275 3.952 53.8435 3.84 54.3155 3.84C54.7875 3.84 55.1715 3.98 55.4675 4.26C55.7715 4.532 55.9275 4.888 55.9355 5.328V9H54.8075V5.724C54.7995 5.452 54.7195 5.232 54.5675 5.064C54.4235 4.888 54.1955 4.8 53.8835 4.8C53.5955 4.8 53.3355 4.88 53.1035 5.04C52.8715 5.2 52.6875 5.42 52.5515 5.7C52.4235 5.98 52.3595 6.304 52.3595 6.672V9H51.2435V4.032H52.2395ZM59.9403 9.12C59.4763 9.12 59.0523 9.02 58.6683 8.82C58.2923 8.62 57.9923 8.328 57.7683 7.944C57.5523 7.552 57.4443 7.076 57.4443 6.516C57.4443 5.964 57.5603 5.488 57.7923 5.088C58.0243 4.68 58.3323 4.368 58.7163 4.152C59.1083 3.936 59.5363 3.828 60.0003 3.828C60.4643 3.828 60.8563 3.936 61.1763 4.152C61.4963 4.36 61.7403 4.608 61.9083 4.896L61.8363 5.088L61.9443 4.032H62.9763V9H61.8603V7.704L61.9803 7.992C61.9483 8.072 61.8763 8.176 61.7643 8.304C61.6603 8.424 61.5163 8.548 61.3323 8.676C61.1563 8.804 60.9523 8.912 60.7203 9C60.4883 9.08 60.2283 9.12 59.9403 9.12ZM60.2403 8.196C60.5203 8.196 60.7723 8.144 60.9963 8.04C61.2203 7.936 61.4043 7.792 61.5483 7.608C61.7003 7.416 61.8043 7.188 61.8603 6.924V5.952C61.7963 5.712 61.6843 5.504 61.5243 5.328C61.3643 5.144 61.1723 5.004 60.9483 4.908C60.7243 4.804 60.4763 4.752 60.2043 4.752C59.9083 4.752 59.6363 4.824 59.3883 4.968C59.1403 5.112 58.9403 5.312 58.7883 5.568C58.6443 5.824 58.5723 6.124 58.5723 6.468C58.5723 6.788 58.6483 7.08 58.8003 7.344C58.9523 7.608 59.1563 7.816 59.4123 7.968C59.6683 8.12 59.9443 8.196 60.2403 8.196Z" fill="#C72828"/>
<path d="M15.1007 4.648C16.3647 4.648 17.4447 4.864 18.3407 5.296C19.2367 5.712 19.9247 6.32 20.4047 7.12C20.9007 7.92 21.1487 8.888 21.1487 10.024C21.1487 10.712 21.0447 11.392 20.8367 12.064C20.6287 12.72 20.2927 13.32 19.8287 13.864C19.3807 14.392 18.7887 14.816 18.0527 15.136C17.3167 15.456 16.4207 15.616 15.3647 15.616H12.7967V22H10.4687V4.648H15.1007ZM15.3407 13.384C16.0287 13.384 16.5967 13.272 17.0447 13.048C17.4927 12.824 17.8447 12.544 18.1007 12.208C18.3567 11.856 18.5407 11.488 18.6527 11.104C18.7647 10.72 18.8207 10.376 18.8207 10.072C18.8207 9.72 18.7647 9.36 18.6527 8.992C18.5407 8.608 18.3487 8.264 18.0767 7.96C17.8207 7.64 17.4767 7.384 17.0447 7.192C16.6287 6.984 16.1087 6.88 15.4847 6.88H12.7967V13.384H15.3407ZM24.1901 12.064H26.4221V22H24.1901V12.064ZM24.0221 8.464C24.0221 8.112 24.1581 7.816 24.4301 7.576C24.7181 7.336 25.0301 7.216 25.3661 7.216C25.7021 7.216 25.9981 7.336 26.2541 7.576C26.5261 7.816 26.6621 8.112 26.6621 8.464C26.6621 8.832 26.5261 9.136 26.2541 9.376C25.9981 9.6 25.7021 9.712 25.3661 9.712C25.0301 9.712 24.7181 9.592 24.4301 9.352C24.1581 9.112 24.0221 8.816 24.0221 8.464ZM31.1958 13.888C30.6998 13.888 30.2758 13.736 29.9238 13.432C29.5718 13.128 29.3958 12.672 29.3958 12.064V11.128H31.0998V11.44C31.0998 11.696 31.1638 11.864 31.2918 11.944C31.4198 12.024 31.6278 12.064 31.9158 12.064H38.2758L32.3238 20.632L31.8918 20.152H38.2038V22H29.0118L35.0838 13.264L35.4678 13.888H31.1958ZM42.3052 13.888C41.8092 13.888 41.3852 13.736 41.0332 13.432C40.6812 13.128 40.5052 12.672 40.5052 12.064V11.128H42.2092V11.44C42.2092 11.696 42.2732 11.864 42.4012 11.944C42.5292 12.024 42.7372 12.064 43.0252 12.064H49.3852L43.4332 20.632L43.0012 20.152H49.3132V22H40.1212L46.1932 13.264L46.5772 13.888H42.3052ZM56.6306 22.24C55.7026 22.24 54.8546 22.04 54.0866 21.64C53.3346 21.24 52.7346 20.656 52.2866 19.888C51.8546 19.104 51.6386 18.152 51.6386 17.032C51.6386 15.928 51.8706 14.976 52.3346 14.176C52.7986 13.36 53.4146 12.736 54.1826 12.304C54.9666 11.872 55.8226 11.656 56.7506 11.656C57.6786 11.656 58.4626 11.872 59.1026 12.304C59.7426 12.72 60.2306 13.216 60.5666 13.792L60.4226 14.176L60.6386 12.064H62.7026V22H60.4706V19.408L60.7106 19.984C60.6466 20.144 60.5026 20.352 60.2786 20.608C60.0706 20.848 59.7826 21.096 59.4146 21.352C59.0626 21.608 58.6546 21.824 58.1906 22C57.7266 22.16 57.2066 22.24 56.6306 22.24ZM57.2306 20.392C57.7906 20.392 58.2946 20.288 58.7426 20.08C59.1906 19.872 59.5586 19.584 59.8466 19.216C60.1506 18.832 60.3586 18.376 60.4706 17.848V15.904C60.3426 15.424 60.1186 15.008 59.7986 14.656C59.4786 14.288 59.0946 14.008 58.6466 13.816C58.1986 13.608 57.7026 13.504 57.1586 13.504C56.5666 13.504 56.0226 13.648 55.5266 13.936C55.0306 14.224 54.6306 14.624 54.3266 15.136C54.0386 15.648 53.8946 16.248 53.8946 16.936C53.8946 17.576 54.0466 18.16 54.3506 18.688C54.6546 19.216 55.0626 19.632 55.5746 19.936C56.0866 20.24 56.6386 20.392 57.2306 20.392Z" fill="#C72828"/>
</svg>
