<svg width="65" height="27" viewBox="0 0 65 27" fill="none" xmlns="http://www.w3.org/2000/svg">
<path d="M30.6328 9V0.323999H32.9968C33.8528 0.323999 34.5808 0.455999 35.1808 0.719999C35.7888 0.984 36.2768 1.332 36.6448 1.764C37.0128 2.196 37.2808 2.676 37.4488 3.204C37.6248 3.724 37.7128 4.244 37.7128 4.764C37.7128 5.42 37.5968 6.008 37.3648 6.528C37.1408 7.048 36.8288 7.492 36.4288 7.86C36.0288 8.228 35.5688 8.512 35.0488 8.712C34.5368 8.904 33.9928 9 33.4168 9H30.6328ZM31.7968 7.884H33.1888C33.6688 7.884 34.1088 7.812 34.5088 7.668C34.9168 7.524 35.2688 7.316 35.5648 7.044C35.8688 6.772 36.1048 6.44 36.2728 6.048C36.4408 5.648 36.5248 5.196 36.5248 4.692C36.5248 4.156 36.4368 3.688 36.2608 3.288C36.0848 2.88 35.8448 2.54 35.5408 2.268C35.2368 1.996 34.8928 1.792 34.5088 1.656C34.1248 1.512 33.7208 1.44 33.2968 1.44H31.7968V7.884ZM39.3919 4.032H40.5079V9H39.3919V4.032ZM39.3079 2.232C39.3079 2.056 39.3759 1.908 39.5119 1.788C39.6559 1.668 39.8119 1.608 39.9799 1.608C40.1479 1.608 40.2959 1.668 40.4239 1.788C40.5599 1.908 40.6279 2.056 40.6279 2.232C40.6279 2.416 40.5599 2.568 40.4239 2.688C40.2959 2.8 40.1479 2.856 39.9799 2.856C39.8119 2.856 39.6559 2.796 39.5119 2.676C39.3759 2.556 39.3079 2.408 39.3079 2.232ZM44.4548 9.144L41.6948 4.032H43.0148L44.8868 7.98L44.2028 7.956L45.9188 4.032H47.1668L44.5148 9.144H44.4548ZM48.3685 4.032H49.4845V9H48.3685V4.032ZM48.2845 2.232C48.2845 2.056 48.3525 1.908 48.4885 1.788C48.6325 1.668 48.7885 1.608 48.9565 1.608C49.1245 1.608 49.2725 1.668 49.4005 1.788C49.5365 1.908 49.6045 2.056 49.6045 2.232C49.6045 2.416 49.5365 2.568 49.4005 2.688C49.2725 2.8 49.1245 2.856 48.9565 2.856C48.7885 2.856 48.6325 2.796 48.4885 2.676C48.3525 2.556 48.2845 2.408 48.2845 2.232ZM52.4114 4.032L52.5074 5.244L52.4594 5.052C52.6194 4.684 52.8794 4.392 53.2394 4.176C53.5994 3.952 54.0154 3.84 54.4874 3.84C54.9594 3.84 55.3434 3.98 55.6394 4.26C55.9434 4.532 56.0994 4.888 56.1074 5.328V9H54.9794V5.724C54.9714 5.452 54.8914 5.232 54.7394 5.064C54.5954 4.888 54.3674 4.8 54.0554 4.8C53.7674 4.8 53.5074 4.88 53.2754 5.04C53.0434 5.2 52.8594 5.42 52.7234 5.7C52.5954 5.98 52.5314 6.304 52.5314 6.672V9H51.4154V4.032H52.4114ZM57.6162 6.468C57.6162 5.972 57.7322 5.524 57.9642 5.124C58.2042 4.724 58.5322 4.408 58.9482 4.176C59.3642 3.944 59.8362 3.828 60.3642 3.828C60.9082 3.828 61.3842 3.944 61.7922 4.176C62.2002 4.408 62.5162 4.724 62.7402 5.124C62.9642 5.524 63.0762 5.972 63.0762 6.468C63.0762 6.964 62.9642 7.416 62.7402 7.824C62.5162 8.224 62.1962 8.54 61.7802 8.772C61.3722 9.004 60.8962 9.12 60.3522 9.12C59.8242 9.12 59.3522 9.012 58.9362 8.796C58.5282 8.572 58.2042 8.264 57.9642 7.872C57.7322 7.472 57.6162 7.004 57.6162 6.468ZM58.7322 6.48C58.7322 6.8 58.8042 7.092 58.9482 7.356C59.0922 7.612 59.2842 7.816 59.5242 7.968C59.7722 8.12 60.0442 8.196 60.3402 8.196C60.6522 8.196 60.9282 8.12 61.1682 7.968C61.4162 7.816 61.6082 7.612 61.7442 7.356C61.8802 7.092 61.9482 6.8 61.9482 6.48C61.9482 6.16 61.8802 5.872 61.7442 5.616C61.6082 5.352 61.4162 5.144 61.1682 4.992C60.9282 4.832 60.6522 4.752 60.3402 4.752C60.0362 4.752 59.7602 4.832 59.5122 4.992C59.2722 5.152 59.0802 5.364 58.9362 5.628C58.8002 5.884 58.7322 6.168 58.7322 6.48Z" fill="#C72828"/>
<path d="M15.1007 3.648C16.3647 3.648 17.4447 3.864 18.3407 4.296C19.2367 4.712 19.9247 5.32 20.4047 6.12C20.9007 6.92 21.1487 7.888 21.1487 9.024C21.1487 9.712 21.0447 10.392 20.8367 11.064C20.6287 11.72 20.2927 12.32 19.8287 12.864C19.3807 13.392 18.7887 13.816 18.0527 14.136C17.3167 14.456 16.4207 14.616 15.3647 14.616H12.7967V21H10.4687V3.648H15.1007ZM15.3407 12.384C16.0287 12.384 16.5967 12.272 17.0447 12.048C17.4927 11.824 17.8447 11.544 18.1007 11.208C18.3567 10.856 18.5407 10.488 18.6527 10.104C18.7647 9.72 18.8207 9.376 18.8207 9.072C18.8207 8.72 18.7647 8.36 18.6527 7.992C18.5407 7.608 18.3487 7.264 18.0767 6.96C17.8207 6.64 17.4767 6.384 17.0447 6.192C16.6287 5.984 16.1087 5.88 15.4847 5.88H12.7967V12.384H15.3407ZM24.1901 11.064H26.4221V21H24.1901V11.064ZM24.0221 7.464C24.0221 7.112 24.1581 6.816 24.4301 6.576C24.7181 6.336 25.0301 6.216 25.3661 6.216C25.7021 6.216 25.9981 6.336 26.2541 6.576C26.5261 6.816 26.6621 7.112 26.6621 7.464C26.6621 7.832 26.5261 8.136 26.2541 8.376C25.9981 8.6 25.7021 8.712 25.3661 8.712C25.0301 8.712 24.7181 8.592 24.4301 8.352C24.1581 8.112 24.0221 7.816 24.0221 7.464ZM31.1958 12.888C30.6998 12.888 30.2758 12.736 29.9238 12.432C29.5718 12.128 29.3958 11.672 29.3958 11.064V10.128H31.0998V10.44C31.0998 10.696 31.1638 10.864 31.2918 10.944C31.4198 11.024 31.6278 11.064 31.9158 11.064H38.2758L32.3238 19.632L31.8918 19.152H38.2038V21H29.0118L35.0838 12.264L35.4678 12.888H31.1958ZM42.3052 12.888C41.8092 12.888 41.3852 12.736 41.0332 12.432C40.6812 12.128 40.5052 11.672 40.5052 11.064V10.128H42.2092V10.44C42.2092 10.696 42.2732 10.864 42.4012 10.944C42.5292 11.024 42.7372 11.064 43.0252 11.064H49.3852L43.4332 19.632L43.0012 19.152H49.3132V21H40.1212L46.1932 12.264L46.5772 12.888H42.3052ZM56.6306 21.24C55.7026 21.24 54.8546 21.04 54.0866 20.64C53.3346 20.24 52.7346 19.656 52.2866 18.888C51.8546 18.104 51.6386 17.152 51.6386 16.032C51.6386 14.928 51.8706 13.976 52.3346 13.176C52.7986 12.36 53.4146 11.736 54.1826 11.304C54.9666 10.872 55.8226 10.656 56.7506 10.656C57.6786 10.656 58.4626 10.872 59.1026 11.304C59.7426 11.72 60.2306 12.216 60.5666 12.792L60.4226 13.176L60.6386 11.064H62.7026V21H60.4706V18.408L60.7106 18.984C60.6466 19.144 60.5026 19.352 60.2786 19.608C60.0706 19.848 59.7826 20.096 59.4146 20.352C59.0626 20.608 58.6546 20.824 58.1906 21C57.7266 21.16 57.2066 21.24 56.6306 21.24ZM57.2306 19.392C57.7906 19.392 58.2946 19.288 58.7426 19.08C59.1906 18.872 59.5586 18.584 59.8466 18.216C60.1506 17.832 60.3586 17.376 60.4706 16.848V14.904C60.3426 14.424 60.1186 14.008 59.7986 13.656C59.4786 13.288 59.0946 13.008 58.6466 12.816C58.1986 12.608 57.7026 12.504 57.1586 12.504C56.5666 12.504 56.0226 12.648 55.5266 12.936C55.0306 13.224 54.6306 13.624 54.3266 14.136C54.0386 14.648 53.8946 15.248 53.8946 15.936C53.8946 16.576 54.0466 17.16 54.3506 17.688C54.6546 18.216 55.0626 18.632 55.5746 18.936C56.0866 19.24 56.6386 19.392 57.2306 19.392Z" fill="#C72828"/>
</svg>
